# DynaMesh Studio generator v0.1
o p01
v 9.2195 0.0000 0.0000
v 9.2195 10.1374 0.0000
v 7.9844 0.0000 4.6098
v 7.9844 10.1374 4.6098
v 4.6098 0.0000 7.9844
v 4.6098 10.1374 7.9844
v 0.0000 0.0000 9.2195
v 0.0000 10.1374 9.2195
v -4.6098 0.0000 7.9844
v -4.6098 10.1374 7.9844
v -7.9844 0.0000 4.6098
v -7.9844 10.1374 4.6098
v -9.2195 0.0000 0.0000
v -9.2195 10.1374 0.0000
v -7.9844 0.0000 -4.6098
v -7.9844 10.1374 -4.6098
v -4.6098 0.0000 -7.9844
v -4.6098 10.1374 -7.9844
v -0.0000 0.0000 -9.2195
v -0.0000 10.1374 -9.2195
v 4.6098 0.0000 -7.9844
v 4.6098 10.1374 -7.9844
v 7.9844 0.0000 -4.6098
v 7.9844 10.1374 -4.6098
v 0.0000 0.0000 0.0000
v 0.0000 10.1374 0.0000
f 1 4 3
f 1 2 4
f 26 4 2
f 25 1 3
f 3 6 5
f 3 4 6
f 26 6 4
f 25 3 5
f 5 8 7
f 5 6 8
f 26 8 6
f 25 5 7
f 7 10 9
f 7 8 10
f 26 10 8
f 25 7 9
f 9 12 11
f 9 10 12
f 26 12 10
f 25 9 11
f 11 14 13
f 11 12 14
f 26 14 12
f 25 11 13
f 13 16 15
f 13 14 16
f 26 16 14
f 25 13 15
f 15 18 17
f 15 16 18
f 26 18 16
f 25 15 17
f 17 20 19
f 17 18 20
f 26 20 18
f 25 17 19
f 19 22 21
f 19 20 22
f 26 22 20
f 25 19 21
f 21 24 23
f 21 22 24
f 26 24 22
f 25 21 23
f 23 2 1
f 23 24 2
f 26 2 24
f 25 23 1
o p02
v 105.4919 0.0000 20.0000
v 105.4919 12.2518 20.0000
v 103.4164 0.0000 27.7460
v 103.4164 12.2518 27.7460
v 97.7460 0.0000 33.4164
v 97.7460 12.2518 33.4164
v 90.0000 0.0000 35.4919
v 90.0000 12.2518 35.4919
v 82.2540 0.0000 33.4164
v 82.2540 12.2518 33.4164
v 76.5836 0.0000 27.7460
v 76.5836 12.2518 27.7460
v 74.5081 0.0000 20.0000
v 74.5081 12.2518 20.0000
v 76.5836 0.0000 12.2540
v 76.5836 12.2518 12.2540
v 82.2540 0.0000 6.5836
v 82.2540 12.2518 6.5836
v 90.0000 0.0000 4.5081
v 90.0000 12.2518 4.5081
v 97.7460 0.0000 6.5836
v 97.7460 12.2518 6.5836
v 103.4164 0.0000 12.2540
v 103.4164 12.2518 12.2540
v 90.0000 0.0000 20.0000
v 90.0000 12.2518 20.0000
f 27 30 29
f 27 28 30
f 52 30 28
f 51 27 29
f 29 32 31
f 29 30 32
f 52 32 30
f 51 29 31
f 31 34 33
f 31 32 34
f 52 34 32
f 51 31 33
f 33 36 35
f 33 34 36
f 52 36 34
f 51 33 35
f 35 38 37
f 35 36 38
f 52 38 36
f 51 35 37
f 37 40 39
f 37 38 40
f 52 40 38
f 51 37 39
f 39 42 41
f 39 40 42
f 52 42 40
f 51 39 41
f 41 44 43
f 41 42 44
f 52 44 42
f 51 41 43
f 43 46 45
f 43 44 46
f 52 46 44
f 51 43 45
f 45 48 47
f 45 46 48
f 52 48 46
f 51 45 47
f 47 50 49
f 47 48 50
f 52 50 48
f 51 47 49
f 49 28 27
f 49 50 28
f 52 28 50
f 51 49 27
o p03
v 192.8035 0.0000 -30.0000
v 192.8035 14.3391 -30.0000
v 189.7484 0.0000 -18.5982
v 189.7484 14.3391 -18.5982
v 181.4018 0.0000 -10.2516
v 181.4018 14.3391 -10.2516
v 170.0000 0.0000 -7.1965
v 170.0000 14.3391 -7.1965
v 158.5982 0.0000 -10.2516
v 158.5982 14.3391 -10.2516
v 150.2516 0.0000 -18.5982
v 150.2516 14.3391 -18.5982
v 147.1965 0.0000 -30.0000
v 147.1965 14.3391 -30.0000
v 150.2516 0.0000 -41.4018
v 150.2516 14.3391 -41.4018
v 158.5982 0.0000 -49.7484
v 158.5982 14.3391 -49.7484
v 170.0000 0.0000 -52.8035
v 170.0000 14.3391 -52.8035
v 181.4018 0.0000 -49.7484
v 181.4018 14.3391 -49.7484
v 189.7484 0.0000 -41.4018
v 189.7484 14.3391 -41.4018
v 170.0000 0.0000 -30.0000
v 170.0000 14.3391 -30.0000
f 53 56 55
f 53 54 56
f 78 56 54
f 77 53 55
f 55 58 57
f 55 56 58
f 78 58 56
f 77 55 57
f 57 60 59
f 57 58 60
f 78 60 58
f 77 57 59
f 59 62 61
f 59 60 62
f 78 62 60
f 77 59 61
f 61 64 63
f 61 62 64
f 78 64 62
f 77 61 63
f 63 66 65
f 63 64 66
f 78 66 64
f 77 63 65
f 65 68 67
f 65 66 68
f 78 68 66
f 77 65 67
f 67 70 69
f 67 68 70
f 78 70 68
f 77 67 69
f 69 72 71
f 69 70 72
f 78 72 70
f 77 69 71
f 71 74 73
f 71 72 74
f 78 74 72
f 77 71 73
f 73 76 75
f 73 74 76
f 78 76 74
f 77 73 75
f 75 54 53
f 75 76 54
f 78 54 76
f 77 75 53
o p04
v 71.6228 0.0000 110.0000
v 71.6228 16.3311 110.0000
v 67.3861 0.0000 125.8114
v 67.3861 16.3311 125.8114
v 55.8114 0.0000 137.3861
v 55.8114 16.3311 137.3861
v 40.0000 0.0000 141.6228
v 40.0000 16.3311 141.6228
v 24.1886 0.0000 137.3861
v 24.1886 16.3311 137.3861
v 12.6139 0.0000 125.8114
v 12.6139 16.3311 125.8114
v 8.3772 0.0000 110.0000
v 8.3772 16.3311 110.0000
v 12.6139 0.0000 94.1886
v 12.6139 16.3311 94.1886
v 24.1886 0.0000 82.6139
v 24.1886 16.3311 82.6139
v 40.0000 0.0000 78.3772
v 40.0000 16.3311 78.3772
v 55.8114 0.0000 82.6139
v 55.8114 16.3311 82.6139
v 67.3861 0.0000 94.1886
v 67.3861 16.3311 94.1886
v 40.0000 0.0000 110.0000
v 40.0000 16.3311 110.0000
f 79 82 81
f 79 80 82
f 104 82 80
f 103 79 81
f 81 84 83
f 81 82 84
f 104 84 82
f 103 81 83
f 83 86 85
f 83 84 86
f 104 86 84
f 103 83 85
f 85 88 87
f 85 86 88
f 104 88 86
f 103 85 87
f 87 90 89
f 87 88 90
f 104 90 88
f 103 87 89
f 89 92 91
f 89 90 92
f 104 92 90
f 103 89 91
f 91 94 93
f 91 92 94
f 104 94 92
f 103 91 93
f 93 96 95
f 93 94 96
f 104 96 94
f 103 93 95
f 95 98 97
f 95 96 98
f 104 98 96
f 103 95 97
f 97 100 99
f 97 98 100
f 104 100 98
f 103 97 99
f 99 102 101
f 99 100 102
f 104 102 100
f 103 99 101
f 101 80 79
f 101 102 80
f 104 80 102
f 103 101 79
o p05
v 158.3772 0.0000 88.3772
v 221.6228 0.0000 88.3772
v 221.6228 0.0000 151.6228
v 158.3772 0.0000 151.6228
v 158.3772 12.0000 88.3772
v 221.6228 12.0000 88.3772
v 221.6228 12.0000 151.6228
v 158.3772 12.0000 151.6228
v 167.8641 12.0000 97.8641
v 212.1359 12.0000 97.8641
v 212.1359 12.0000 142.1359
v 167.8641 12.0000 142.1359
v 167.8641 24.0000 97.8641
v 212.1359 24.0000 97.8641
v 212.1359 24.0000 142.1359
v 167.8641 24.0000 142.1359
v 174.5048 24.0000 104.5048
v 205.4952 24.0000 104.5048
v 205.4952 24.0000 135.4952
v 174.5048 24.0000 135.4952
v 174.5048 36.0000 104.5048
v 205.4952 36.0000 104.5048
v 205.4952 36.0000 135.4952
v 174.5048 36.0000 135.4952
f 105 106 107
f 105 107 108
f 109 111 110
f 109 112 111
f 105 109 110
f 105 110 106
f 107 111 112
f 107 112 108
f 105 108 112
f 105 112 109
f 106 111 107
f 106 110 111
f 113 114 115
f 113 115 116
f 117 119 118
f 117 120 119
f 113 117 118
f 113 118 114
f 115 119 120
f 115 120 116
f 113 116 120
f 113 120 117
f 114 119 115
f 114 118 119
f 121 122 123
f 121 123 124
f 125 127 126
f 125 128 127
f 121 125 126
f 121 126 122
f 123 127 128
f 123 128 124
f 121 124 128
f 121 128 125
f 122 127 123
f 122 126 127
o p06
v 281.0102 0.0000 -8.9898
v 378.9898 0.0000 -8.9898
v 378.9898 0.0000 88.9898
v 281.0102 0.0000 88.9898
v 281.0102 12.0000 -8.9898
v 378.9898 12.0000 -8.9898
v 378.9898 12.0000 88.9898
v 281.0102 12.0000 88.9898
v 295.7071 12.0000 5.7071
v 364.2929 12.0000 5.7071
v 364.2929 12.0000 74.2929
v 295.7071 12.0000 74.2929
v 295.7071 24.0000 5.7071
v 364.2929 24.0000 5.7071
v 364.2929 24.0000 74.2929
v 295.7071 24.0000 74.2929
v 305.9950 24.0000 15.9950
v 354.0050 24.0000 15.9950
v 354.0050 24.0000 64.0050
v 305.9950 24.0000 64.0050
v 305.9950 36.0000 15.9950
v 354.0050 36.0000 15.9950
v 354.0050 36.0000 64.0050
v 305.9950 36.0000 64.0050
v 313.1965 36.0000 23.1965
v 346.8035 36.0000 23.1965
v 346.8035 36.0000 56.8035
v 313.1965 36.0000 56.8035
v 313.1965 48.0000 23.1965
v 346.8035 48.0000 23.1965
v 346.8035 48.0000 56.8035
v 313.1965 48.0000 56.8035
f 129 130 131
f 129 131 132
f 133 135 134
f 133 136 135
f 129 133 134
f 129 134 130
f 131 135 136
f 131 136 132
f 129 132 136
f 129 136 133
f 130 135 131
f 130 134 135
f 137 138 139
f 137 139 140
f 141 143 142
f 141 144 143
f 137 141 142
f 137 142 138
f 139 143 144
f 139 144 140
f 137 140 144
f 137 144 141
f 138 143 139
f 138 142 143
f 145 146 147
f 145 147 148
f 149 151 150
f 149 152 151
f 145 149 150
f 145 150 146
f 147 151 152
f 147 152 148
f 145 148 152
f 145 152 149
f 146 151 147
f 146 150 151
f 153 154 155
f 153 155 156
f 157 159 158
f 157 160 159
f 153 157 158
f 153 158 154
f 155 159 160
f 155 160 156
f 153 156 160
f 153 160 157
f 154 159 155
f 154 158 159
o p07
v -12.1954 0.0000 197.8046
v 172.1954 0.0000 197.8046
v 172.1954 0.0000 382.1954
v -12.1954 0.0000 382.1954
v -12.1954 12.0000 197.8046
v 172.1954 12.0000 197.8046
v 172.1954 12.0000 382.1954
v -12.1954 12.0000 382.1954
v 15.4632 12.0000 225.4632
v 144.5368 12.0000 225.4632
v 144.5368 12.0000 354.5368
v 15.4632 12.0000 354.5368
v 15.4632 24.0000 225.4632
v 144.5368 24.0000 225.4632
v 144.5368 24.0000 354.5368
v 15.4632 24.0000 354.5368
v 34.8242 24.0000 244.8242
v 125.1758 24.0000 244.8242
v 125.1758 24.0000 335.1758
v 34.8242 24.0000 335.1758
v 34.8242 36.0000 244.8242
v 125.1758 36.0000 244.8242
v 125.1758 36.0000 335.1758
v 34.8242 36.0000 335.1758
v 48.3770 36.0000 258.3770
v 111.6230 36.0000 258.3770
v 111.6230 36.0000 321.6230
v 48.3770 36.0000 321.6230
v 48.3770 48.0000 258.3770
v 111.6230 48.0000 258.3770
v 111.6230 48.0000 321.6230
v 48.3770 48.0000 321.6230
v 57.8639 48.0000 267.8639
v 102.1361 48.0000 267.8639
v 102.1361 48.0000 312.1361
v 57.8639 48.0000 312.1361
v 57.8639 60.0000 267.8639
v 102.1361 60.0000 267.8639
v 102.1361 60.0000 312.1361
v 57.8639 60.0000 312.1361
f 161 162 163
f 161 163 164
f 165 167 166
f 165 168 167
f 161 165 166
f 161 166 162
f 163 167 168
f 163 168 164
f 161 164 168
f 161 168 165
f 162 167 163
f 162 166 167
f 169 170 171
f 169 171 172
f 173 175 174
f 173 176 175
f 169 173 174
f 169 174 170
f 171 175 176
f 171 176 172
f 169 172 176
f 169 176 173
f 170 175 171
f 170 174 175
f 177 178 179
f 177 179 180
f 181 183 182
f 181 184 183
f 177 181 182
f 177 182 178
f 179 183 184
f 179 184 180
f 177 180 184
f 177 184 181
f 178 183 179
f 178 182 183
f 185 186 187
f 185 187 188
f 189 191 190
f 189 192 191
f 185 189 190
f 185 190 186
f 187 191 192
f 187 192 188
f 185 188 192
f 185 192 189
f 186 191 187
f 186 190 191
f 193 194 195
f 193 195 196
f 197 199 198
f 197 200 199
f 193 197 198
f 193 198 194
f 195 199 200
f 195 200 196
f 193 196 200
f 193 200 197
f 194 199 195
f 194 198 199
o p08
v 303.8730 0.0000 230.0000
v 303.8730 8.4856 230.0000
v 303.3541 0.0000 231.9365
v 303.3541 8.4856 231.9365
v 301.9365 0.0000 233.3541
v 301.9365 8.4856 233.3541
v 300.0000 0.0000 233.8730
v 300.0000 8.4856 233.8730
v 298.0635 0.0000 233.3541
v 298.0635 8.4856 233.3541
v 296.6459 0.0000 231.9365
v 296.6459 8.4856 231.9365
v 296.1270 0.0000 230.0000
v 296.1270 8.4856 230.0000
v 296.6459 0.0000 228.0635
v 296.6459 8.4856 228.0635
v 298.0635 0.0000 226.6459
v 298.0635 8.4856 226.6459
v 300.0000 0.0000 226.1270
v 300.0000 8.4856 226.1270
v 301.9365 0.0000 226.6459
v 301.9365 8.4856 226.6459
v 303.3541 0.0000 228.0635
v 303.3541 8.4856 228.0635
v 300.0000 0.0000 230.0000
v 300.0000 8.4856 230.0000
f 201 204 203
f 201 202 204
f 226 204 202
f 225 201 203
f 203 206 205
f 203 204 206
f 226 206 204
f 225 203 205
f 205 208 207
f 205 206 208
f 226 208 206
f 225 205 207
f 207 210 209
f 207 208 210
f 226 210 208
f 225 207 209
f 209 212 211
f 209 210 212
f 226 212 210
f 225 209 211
f 211 214 213
f 211 212 214
f 226 214 212
f 225 211 213
f 213 216 215
f 213 214 216
f 226 216 214
f 225 213 215
f 215 218 217
f 215 216 218
f 226 218 216
f 225 215 217
f 217 220 219
f 217 218 220
f 226 220 218
f 225 217 219
f 219 222 221
f 219 220 222
f 226 222 220
f 225 219 221
f 221 224 223
f 221 222 224
f 226 224 222
f 225 221 223
f 223 202 201
f 223 224 202
f 226 202 224
f 225 223 201
